<svg width="142" height="138" viewBox="0 0 142 138" fill="none" xmlns="http://www.w3.org/2000/svg">
<path d="M111.921 45.4479L92.6226 26.1495L73.3242 45.4479L92.6226 64.7463L111.921 45.4479Z" fill="#020817"/>
<path d="M90.4784 66.8905L71.18 47.5921L51.8816 66.8905L71.18 86.1889L90.4784 66.8905Z" fill="#020817"/>
<path d="M69.0358 45.4479L49.7374 26.1495L30.439 45.4479L49.7374 64.7463L69.0358 45.4479Z" fill="#020817"/>
<path d="M69.0356 88.3333L49.7372 69.0349L30.4388 88.3333L49.7372 107.632L69.0356 88.3333Z" fill="#64748B"/>
<path d="M47.593 66.8907L28.2946 47.5923L8.99623 66.8907L28.2946 86.1891L47.593 66.8907Z" fill="#020817"/>
<path d="M133.364 66.8907L114.065 47.5923L94.7671 66.8907L114.065 86.1891L133.364 66.8907Z" fill="#020817"/>
<path d="M111.921 88.3333L92.6228 69.0349L73.3244 88.3333L92.6228 107.632L111.921 88.3333Z" fill="#64748B"/>
<path d="M90.4785 109.776L71.1801 90.4777L51.8817 109.776L71.1801 129.075L90.4785 109.776Z" fill="#64748B"/>
<path fill-rule="evenodd" clip-rule="evenodd" d="M4.60781 66.7437L71.033 133.169L137.458 66.7437L141.744 66.7437L71.033 137.454L0.322325 66.7437L4.60781 66.7437Z" fill="#020817"/>
<path fill-rule="evenodd" clip-rule="evenodd" d="M49.6056 17.4604L71.0305 38.8903L92.4604 17.4604L141.744 66.7437L137.458 66.7437L92.4604 21.7459L71.033 43.1733L49.6056 21.7459L4.60781 66.7437L0.322325 66.7437L49.6056 17.4604Z" fill="#64748B"/>
</svg>
